<svg xmlns="http://www.w3.org/2000/svg" viewBox="0 0 37.99 50.95"><defs><style>.cls-1{fill:#033f70;}</style></defs><g id="Layer_2" data-name="Layer 2"><g id="Layer_1-2" data-name="Layer 1"><path class="cls-1" d="M19,0A19,19,0,0,0,0,19a21.83,21.83,0,0,0,1.61,7.32,30.56,30.56,0,0,0,2.17,4.07l12.57,19a3.05,3.05,0,0,0,5.29,0l12.57-19a30,30,0,0,0,2.17-4.07A21.35,21.35,0,0,0,38,19,19,19,0,0,0,19,0Zm0,3.49A15.52,15.52,0,0,1,34.49,19a18.5,18.5,0,0,1-1.33,6h0a26.32,26.32,0,0,1-1.87,3.51L19,47.08,6.7,28.46A26.21,26.21,0,0,1,4.83,25a18.42,18.42,0,0,1-1.34-6A15.53,15.53,0,0,1,19,3.49Z"/><path class="cls-1" d="M19,29.37A10.38,10.38,0,1,0,8.62,19,10.39,10.39,0,0,0,19,29.37Zm0-17.25A6.88,6.88,0,1,1,12.12,19,6.88,6.88,0,0,1,19,12.12Z"/></g></g></svg>