<svg xmlns="http://www.w3.org/2000/svg" viewBox="0 0 41.2 49.33"><defs><style>.cls-1{fill:#033f70;}</style></defs><g id="Layer_2" data-name="Layer 2"><g id="Layer_1-2" data-name="Layer 1"><path class="cls-1" d="M19.89,49A44.54,44.54,0,0,1,10,42.62a32.55,32.55,0,0,1-6.85-7.89A21.45,21.45,0,0,1,0,23.61V11.88A5.65,5.65,0,0,1,4.65,6.33,31.55,31.55,0,0,0,16,1.42a8.32,8.32,0,0,1,9.3,0,31.55,31.55,0,0,0,11.3,4.91,5.64,5.64,0,0,1,4.65,5.55V23.61A21.45,21.45,0,0,1,38,34.73a32.34,32.34,0,0,1-6.85,7.89A45.16,45.16,0,0,1,21.31,49l-.71.32ZM20.6,3.49a4.75,4.75,0,0,0-2.7.83A35.1,35.1,0,0,1,5.27,9.76a2.16,2.16,0,0,0-1.78,2.12V23.61c0,5.27,2.43,10.29,7.22,14.92a43,43,0,0,0,9.8,6.91l.09.05.09-.05A44.18,44.18,0,0,0,29,39.91c5.8-5,8.74-10.47,8.74-16.3V11.88a2.15,2.15,0,0,0-1.78-2.12A35.18,35.18,0,0,1,23.3,4.32,4.73,4.73,0,0,0,20.6,3.49Z"/><polygon class="cls-1" points="8.57 25.02 10.95 22.47 17.6 28.7 30.15 14.63 32.75 16.95 17.83 33.68 8.57 25.02"/></g></g></svg>